<svg id="Layer_5" enable-background="new 0 0 64 64" height="50" viewBox="0 0 64 64" width="50" xmlns="http://www.w3.org/2000/svg"><g><path d="m58.931 17h-9.861l-2 28h-2.07v-8h-2.382l-1.693-22h-9.852l-.796 10.343-.229.114c-1.438-.84-2.974-1.471-4.576-1.881l-.888-1.576h-7.168l-.89 1.576c-1.603.411-3.138 1.042-4.576 1.881l-2.461-1.23-5.263 5.262 1.231 2.461c-.819 1.403-1.44 2.899-1.852 4.459l-2.605.87v7.441l2.606.869c.411 1.561 1.032 3.057 1.852 4.46l-1.231 2.461 5.263 5.263 2.463-1.231c.822.486 2.28 1.325 3.048 1.765v4.693h48v-18h-2.069zm-1.862 2 .286 4h-6.71l.286-4zm-6.567 6h6.996l1.429 20h-9.853zm-35.502 12v14.388c-3.687-2.124-6-6.05-6-10.388 0-6.617 5.383-12 12-12 3.302 0 6.445 1.374 8.707 3.765l-.325 4.235zm17.464-14h7.071l1.077 14h-9.225zm6.61-6 .308 4h-6.764l.308-4zm-26.548 37.554-.476-.298-2.166 1.084-3.224-3.224 1.084-2.167-.298-.477c-.948-1.514-1.63-3.156-2.026-4.881l-.126-.548-2.294-.764v-4.559l2.294-.765.126-.548c.396-1.726 1.078-3.367 2.026-4.881l.298-.476-1.084-2.166 3.224-3.223 2.167 1.083.477-.298c1.514-.949 3.156-1.63 4.881-2.026l.431-.099.744-1.321h4.832l.745 1.321.431.099c1.725.396 3.367 1.078 4.881 2.026l.477.298.15-.075-.196 2.553c-2.493-2.058-5.63-3.222-8.904-3.222-7.72 0-14 6.28-14 14 0 5.442 3.121 10.328 8 12.643v2.357c-.978-.564-2.135-1.234-2.474-1.446zm14.474 6.446h-10v-22h26v6h-11.414l-4.586 4.586zm10 0h-4v-6h4zm10 0h-4v-6h4zm10 0h-4v-6h4zm2 0v-8h-8v8h-2v-8h-8v8h-2v-8h-8v8h-2v-10h32v10zm2-12h-30.586l2-2h28.586z"/><path d="m51 9h9c.552 0 1 .449 1 1s-.448 1-1 1h-2c-1.654 0-3 1.346-3 3v1h2v-1c0-.551.448-1 1-1h2c1.654 0 3-1.346 3-3s-1.346-3-3-3h-9z"/><path d="m48 13h2c.552 0 1 .449 1 1v1h2v-1c0-1.654-1.346-3-3-3h-2c-1.654 0-3-1.346-3-3s1.346-3 3-3h7v-2h-7c-2.757 0-5 2.243-5 5s2.243 5 5 5z"/><path d="m57 3h2v2h-2z"/><path d="m9 7h7c.552 0 1 .449 1 1 0 1.654 1.346 3 3 3h12c.552 0 1 .449 1 1v1h2v-1c0-1.654-1.346-3-3-3h-12c-.552 0-1-.449-1-1 0-1.654-1.346-3-3-3h-7c-.552 0-1-.449-1-1s.448-1 1-1h11v-2h-11c-1.654 0-3 1.346-3 3s1.346 3 3 3z"/><path d="m29 7h3c2.757 0 5 2.243 5 5v1h2v-1c0-3.86-3.141-7-7-7h-3c-.552 0-1-.449-1-1s.448-1 1-1h11v-2h-11c-1.654 0-3 1.346-3 3s1.346 3 3 3z"/><path d="m35 41h2v2h-2z"/><path d="m39 41h2v2h-2z"/><path d="m31 41h2v2h-2z"/><path d="m27 41h2v2h-2z"/><path d="m19 41h2v2h-2z"/><path d="m23 41h2v2h-2z"/><path d="m23 45h2v2h-2z"/><path d="m19 45h2v2h-2z"/><path d="m23 49h2v2h-2z"/><path d="m19 49h2v2h-2z"/><path d="m19 53h2v2h-2z"/><path d="m23 53h2v2h-2z"/><path d="m23 57h2v2h-2z"/><path d="m19 57h2v2h-2z"/><path d="m35 25h2v2h-2z"/><path d="m35 33h2v2h-2z"/><path d="m35 29h2v2h-2z"/><path d="m53 27h2v2h-2z"/><path d="m53 35h2v2h-2z"/><path d="m53 31h2v2h-2z"/><path d="m53 39h2v2h-2z"/></g></svg>